<svg width="20" height="16" viewBox="0 0 20 16" fill="none" xmlns="http://www.w3.org/2000/svg">
<path d="M13.56 7.74C12.84 7.74 12.22 7.42 11.7 6.78C11.18 6.14 10.92 5.32 10.92 4.32C10.92 3.36 11.3 2.52 12.06 1.8C12.82 1.08 13.78 0.720001 14.94 0.720001C16.06 0.720001 17.06 1.16 17.94 2.04C18.78 2.96 19.2 4.2 19.2 5.76C19.2 8.32 18.54 10.5 17.22 12.3C15.9 14.14 14.32 15.06 12.48 15.06C11.16 15.06 10.5 14.58 10.5 13.62C11.82 13.3 12.92 12.58 13.8 11.46C14.64 10.38 15.06 9.06 15.06 7.5C14.74 7.66 14.24 7.74 13.56 7.74ZM3.42 7.74C2.7 7.74 2.08 7.42 1.56 6.78C1.04 6.14 0.779999 5.32 0.779999 4.32C0.779999 3.36 1.16 2.52 1.92 1.8C2.68 1.08 3.64 0.720001 4.8 0.720001C5.92 0.720001 6.92 1.16 7.8 2.04C8.64 2.96 9.06 4.2 9.06 5.76C9.06 8.32 8.4 10.5 7.08 12.3C5.76 14.14 4.18 15.06 2.34 15.06C1.02 15.06 0.359999 14.58 0.359999 13.62C1.68 13.3 2.78 12.58 3.66 11.46C4.5 10.38 4.92 9.06 4.92 7.5C4.6 7.66 4.1 7.74 3.42 7.74Z" fill="white"/>
</svg>
