<svg width="20" height="16" viewBox="0 0 20 16" fill="none" xmlns="http://www.w3.org/2000/svg">
<path d="M6.44 8.26C7.16 8.26 7.78 8.58 8.3 9.22C8.82 9.86 9.08 10.68 9.08 11.68C9.08 12.64 8.7 13.48 7.94 14.2C7.18 14.92 6.22 15.28 5.06 15.28C3.94 15.28 2.94 14.84 2.06 13.96C1.22 13.04 0.8 11.8 0.8 10.24C0.8 7.68 1.46 5.5 2.78 3.7C4.1 1.86 5.68 0.939998 7.52 0.939998C8.84 0.939998 9.5 1.42 9.5 2.38C8.18 2.7 7.08 3.42 6.2 4.54C5.36 5.62 4.94 6.94 4.94 8.5C5.26 8.34 5.76 8.26 6.44 8.26ZM16.58 8.26C17.3 8.26 17.92 8.58 18.44 9.22C18.96 9.86 19.22 10.68 19.22 11.68C19.22 12.64 18.84 13.48 18.08 14.2C17.32 14.92 16.36 15.28 15.2 15.28C14.08 15.28 13.08 14.84 12.2 13.96C11.36 13.04 10.94 11.8 10.94 10.24C10.94 7.68 11.6 5.5 12.92 3.7C14.24 1.86 15.82 0.939998 17.66 0.939998C18.98 0.939998 19.64 1.42 19.64 2.38C18.32 2.7 17.22 3.42 16.34 4.54C15.5 5.62 15.08 6.94 15.08 8.5C15.4 8.34 15.9 8.26 16.58 8.26Z" fill="white"/>
</svg>
