<svg width="16" height="16" viewBox="0 0 16 16" fill="none" xmlns="http://www.w3.org/2000/svg">
<path d="M8 0C3.58214 0 0 3.58214 0 8C0 12.4179 3.58214 16 8 16C12.4179 16 16 12.4179 16 8C16 3.58214 12.4179 0 8 0ZM8 14.6429C4.33214 14.6429 1.35714 11.6679 1.35714 8C1.35714 4.33214 4.33214 1.35714 8 1.35714C11.6679 1.35714 14.6429 4.33214 14.6429 8C14.6429 11.6679 11.6679 14.6429 8 14.6429Z" fill="#2F2F2F"/>
<path d="M9.99307 4.51243C9.45735 4.04279 8.75021 3.78564 8.00021 3.78564C7.25021 3.78564 6.54307 4.04457 6.00735 4.51243C5.45021 4.99993 5.14307 5.65529 5.14307 6.35707V6.49279C5.14307 6.57136 5.20735 6.63564 5.28592 6.63564H6.14307C6.22164 6.63564 6.28592 6.57136 6.28592 6.49279V6.35707C6.28592 5.56957 7.05557 4.9285 8.00021 4.9285C8.94485 4.9285 9.71449 5.56957 9.71449 6.35707C9.71449 6.91243 9.32164 7.42136 8.71271 7.65529C8.33414 7.79993 8.01271 8.0535 7.78235 8.38564C7.54842 8.72493 7.42699 9.13207 7.42699 9.54457V9.9285C7.42699 10.0071 7.49128 10.0714 7.56985 10.0714H8.427C8.50557 10.0714 8.56985 10.0071 8.56985 9.9285V9.52314C8.57078 9.34979 8.62392 9.18074 8.72234 9.03803C8.82077 8.89533 8.95992 8.78559 9.12164 8.72314C10.1752 8.31779 10.8556 7.38922 10.8556 6.35707C10.8574 5.65529 10.5502 4.99993 9.99307 4.51243ZM7.28592 11.9285C7.28592 12.1179 7.36118 12.2996 7.49513 12.4336C7.62909 12.5675 7.81077 12.6428 8.00021 12.6428C8.18965 12.6428 8.37133 12.5675 8.50529 12.4336C8.63924 12.2996 8.71449 12.1179 8.71449 11.9285C8.71449 11.7391 8.63924 11.5574 8.50529 11.4234C8.37133 11.2895 8.18965 11.2142 8.00021 11.2142C7.81077 11.2142 7.62909 11.2895 7.49513 11.4234C7.36118 11.5574 7.28592 11.7391 7.28592 11.9285Z" fill="#2F2F2F"/>
</svg>
