<svg width="12" height="12" viewBox="0 0 12 12" fill="none" xmlns="http://www.w3.org/2000/svg">
<path d="M11.2654 3.92587C11.241 3.37132 11.1513 2.99008 11.0229 2.65972C10.8903 2.30906 10.6864 1.99511 10.4193 1.73412C10.1583 1.46907 9.84232 1.26312 9.49571 1.13266C9.16345 1.0042 8.78419 0.914525 8.22964 0.890075C7.67095 0.863554 7.49359 0.857422 6.0766 0.857422C4.65961 0.857422 4.48225 0.863554 3.92563 0.888004C3.37108 0.912455 2.98983 1.00221 2.65956 1.13059C2.30881 1.26312 1.99486 1.467 1.73388 1.73412C1.46883 1.99511 1.26295 2.31113 1.13242 2.65773C1.00396 2.99008 0.914281 3.36925 0.889831 3.9238C0.86331 4.48249 0.857178 4.65985 0.857178 6.07684C0.857178 7.49384 0.86331 7.6712 0.88776 8.22782C0.91221 8.78236 1.00197 9.16361 1.13043 9.49397C1.26295 9.84463 1.46883 10.1586 1.73388 10.4196C1.99486 10.6846 2.31088 10.8906 2.65749 11.021C2.98983 11.1495 3.36901 11.2392 3.92364 11.2636C4.48018 11.2881 4.65762 11.2942 6.07461 11.2942C7.4916 11.2942 7.66896 11.2881 8.22558 11.2636C8.78013 11.2392 9.16138 11.1495 9.49165 11.021C10.1931 10.7498 10.7476 10.1953 11.0188 9.49397C11.1472 9.16162 11.2369 8.78236 11.2614 8.22782C11.2858 7.6712 11.292 7.49384 11.292 6.07684C11.292 4.65985 11.2899 4.48249 11.2654 3.92587ZM10.3256 8.18704C10.3031 8.69675 10.2175 8.97199 10.1462 9.15549C9.97078 9.61016 9.60992 9.97102 9.15524 10.1464C8.97175 10.2178 8.69451 10.3034 8.1868 10.3257C7.63631 10.3503 7.47121 10.3563 6.07867 10.3563C4.68613 10.3563 4.51896 10.3503 3.97047 10.3257C3.46076 10.3034 3.18551 10.2178 3.00202 10.1464C2.77576 10.0628 2.5698 9.93025 2.40263 9.75694C2.22933 9.58771 2.09681 9.38382 2.01318 9.15756C1.94182 8.97406 1.85621 8.69675 1.83383 8.18911C1.8093 7.63863 1.80325 7.47345 1.80325 6.08091C1.80325 4.68836 1.8093 4.5212 1.83383 3.97278C1.85621 3.46307 1.94182 3.18783 2.01318 3.00433C2.09681 2.77799 2.22933 2.57212 2.4047 2.40487C2.57386 2.23157 2.77775 2.09904 3.00409 2.0155C3.18758 1.94414 3.4649 1.85852 3.97254 1.83606C4.52302 1.81161 4.6882 1.80548 6.08066 1.80548C7.47527 1.80548 7.64037 1.81161 8.18887 1.83606C8.69858 1.85852 8.97382 1.94414 9.15731 2.0155C9.38358 2.09904 9.58953 2.23157 9.7567 2.40487C9.93 2.57411 10.0625 2.77799 10.1462 3.00433C10.2175 3.18783 10.3031 3.46506 10.3256 3.97278C10.35 4.52327 10.3562 4.68836 10.3562 6.08091C10.3562 7.47345 10.35 7.63655 10.3256 8.18704Z" fill="white"/>
<path d="M6.07609 3.39551C4.59594 3.39551 3.39502 4.59635 3.39502 6.07658C3.39502 7.55681 4.59594 8.75765 6.07609 8.75765C7.55632 8.75765 8.75716 7.55681 8.75716 6.07658C8.75716 4.59635 7.55632 3.39551 6.07609 3.39551ZM6.07609 7.81572C5.11585 7.81572 4.33695 7.0369 4.33695 6.07658C4.33695 5.11625 5.11585 4.33743 6.07609 4.33743C7.03641 4.33743 7.81523 5.11625 7.81523 6.07658C7.81523 7.0369 7.03641 7.81572 6.07609 7.81572Z" fill="white"/>
<path d="M9.48872 3.28985C9.48872 3.63543 9.20851 3.91564 8.86285 3.91564C8.51727 3.91564 8.23706 3.63543 8.23706 3.28985C8.23706 2.94419 8.51727 2.66406 8.86285 2.66406C9.20851 2.66406 9.48872 2.94419 9.48872 3.28985Z" fill="white"/>
</svg>
