<svg width="12" height="10" viewBox="0 0 12 10" fill="none" xmlns="http://www.w3.org/2000/svg">
<path d="M10.5403 2.67728C10.5479 2.7762 10.5479 2.87456 10.5479 2.97291C10.5479 5.98288 8.19086 9.45127 3.88334 9.45127C2.55625 9.45127 1.32337 9.07763 0.285889 8.42873C0.47431 8.44964 0.655753 8.45699 0.851734 8.45699C1.94679 8.45699 2.95461 8.09749 3.76005 7.48419C2.73013 7.46327 1.86712 6.80758 1.56936 5.90544C1.71417 5.92635 1.85956 5.94049 2.01192 5.94049C2.22186 5.94049 2.43296 5.91222 2.62894 5.86305C1.55483 5.65164 0.750545 4.73537 0.750545 3.6286V3.60034C1.06284 3.76935 1.42514 3.87505 1.80896 3.88918C1.17798 3.48107 0.764502 2.78299 0.764502 1.99333C0.764502 1.57052 0.88023 1.18276 1.08319 0.844737C2.2364 2.22565 3.96999 3.12836 5.91352 3.22727C5.87747 3.0577 5.85537 2.88191 5.85537 2.70555C5.85537 1.45069 6.89983 0.428711 8.19784 0.428711C8.87244 0.428711 9.48132 0.703423 9.90934 1.14771C10.4385 1.04879 10.9457 0.858302 11.3958 0.597721C11.2219 1.12623 10.8514 1.57052 10.3659 1.85258C10.8375 1.80284 11.2946 1.67622 11.7145 1.49986C11.3958 1.95094 10.9974 2.35283 10.5403 2.67728Z" fill="white"/>
</svg>
