<svg width="24" height="24" viewBox="0 0 24 24" fill="none" xmlns="http://www.w3.org/2000/svg">
<path d="M12 24C15.1826 24 18.2348 22.7357 20.4853 20.4853C22.7357 18.2348 24 15.1826 24 12C24 8.8174 22.7357 5.76516 20.4853 3.51472C18.2348 1.26428 15.1826 0 12 0C8.8174 0 5.76516 1.26428 3.51472 3.51472C1.26428 5.76516 0 8.8174 0 12C0 15.1826 1.26428 18.2348 3.51472 20.4853C5.76516 22.7357 8.8174 24 12 24ZM12 1.5C12.9855 1.5 14.1105 2.385 15.033 4.362C15.3585 5.061 15.642 5.865 15.8715 6.75H8.1285C8.358 5.865 8.6415 5.061 8.9685 4.362C9.888 2.385 11.013 1.5 12 1.5ZM7.608 3.7275C7.16506 4.69772 6.8218 5.71042 6.5835 6.75H2.904C4.17036 4.56131 6.18184 2.90122 8.571 2.073C8.2095 2.568 7.887 3.129 7.608 3.7275ZM6.288 8.25C6.09387 9.49052 5.99757 10.7444 6 12C6 13.305 6.1005 14.568 6.2895 15.75H2.19C1.73254 14.5527 1.49867 13.2817 1.5 12C1.5 10.68 1.7445 9.414 2.19 8.25H6.2895H6.288ZM6.5835 17.25C6.8475 18.3645 7.194 19.383 7.608 20.2725C7.887 20.871 8.2095 21.432 8.571 21.927C6.18184 21.0988 4.17036 19.4387 2.904 17.25H6.585H6.5835ZM8.1285 17.25H15.8715C15.6649 18.0699 15.3837 18.8693 15.0315 19.638C14.112 21.615 12.987 22.5 12 22.5C11.0145 22.5 9.8895 21.615 8.967 19.638C8.61588 18.8691 8.33571 18.0698 8.13 17.25H8.1285ZM16.191 15.75H7.809C7.60056 14.5109 7.49719 13.2565 7.5 12C7.5 10.6755 7.6095 9.4125 7.809 8.25H16.191C16.3905 9.4125 16.5 10.6755 16.5 12C16.5 13.3245 16.3905 14.5875 16.191 15.75ZM17.4165 17.25H21.096C19.8296 19.4387 17.8182 21.0988 15.429 21.927C15.7905 21.432 16.113 20.871 16.392 20.2725C16.806 19.383 17.1525 18.3645 17.4165 17.25ZM21.8115 15.75H17.7105C17.8995 14.568 18 13.305 18 12C18 10.695 17.8995 9.432 17.7105 8.25H21.81C22.2555 9.414 22.5 10.68 22.5 12C22.5 13.32 22.2555 14.586 21.81 15.75H21.8115ZM15.429 2.073C17.8182 2.90111 19.8297 4.56122 21.096 6.75H17.415C17.1767 5.71042 16.8334 4.69773 16.3905 3.7275C16.1234 3.14634 15.8009 2.59228 15.4275 2.073H15.429Z" fill="white"/>
</svg>
