<svg width="12" height="24" viewBox="0 0 12 24" fill="none" xmlns="http://www.w3.org/2000/svg">
<path d="M5.10764 8.84201C4.4267 8.84201 3.87299 9.39572 3.87299 10.0767V11.5281C2.30603 12.2716 1.21597 13.8595 1.20198 15.7027L0.00332899 23.6553C-0.00964541 23.7418 0.0156758 23.8297 0.0728057 23.8958C0.129725 23.9619 0.212803 24 0.300065 24H11.4247C11.5119 24 11.5952 23.9619 11.6519 23.8958C11.709 23.8297 11.7342 23.7418 11.7214 23.6553L10.5227 15.7027C10.5089 13.8595 9.41869 12.2716 7.85173 11.5281V10.0767C7.85173 9.39572 7.29802 8.84201 6.61707 8.84201H6.16214V8.02649C7.25344 7.9566 8.32507 7.51045 9.15752 6.67822C10.9745 4.86119 10.9745 1.90492 9.15752 0.0878902C9.04033 -0.0292967 8.85053 -0.0292967 8.73334 0.0878902C8.61615 0.205077 8.61615 0.39488 8.73334 0.512067C10.3162 2.09493 10.3162 4.67096 8.73334 6.25382C7.9467 7.04046 6.91465 7.43534 5.88132 7.44016C5.87462 7.43974 5.86897 7.43639 5.86228 7.43639C5.85558 7.43639 5.84993 7.43974 5.84323 7.44016C4.80968 7.43534 3.7778 7.04047 2.99121 6.25382C1.40834 4.67096 1.40834 2.09493 2.99121 0.512067C3.1084 0.39488 3.1084 0.205077 2.99121 0.0878902C2.87402 -0.0292967 2.68422 -0.0292967 2.56703 0.0878902C0.750007 1.90492 0.750007 4.86119 2.56703 6.67822C3.39926 7.51044 4.47069 7.95701 5.56241 8.02649V8.84201H5.10764ZM0.648916 23.4L1.5412 17.4798C2.23302 19.1893 3.90776 20.3999 5.86246 20.3999C7.81695 20.3999 9.49169 19.1893 10.1835 17.4798L11.0758 23.4H0.648916ZM9.92423 15.7382C9.92423 17.978 8.10195 19.8002 5.86225 19.8002C3.62233 19.8002 1.80005 17.9779 1.80005 15.7382C1.80005 13.4985 3.62233 11.6762 5.86225 11.6762C8.102 11.6762 9.92423 13.4985 9.92423 15.7382ZM7.25151 10.0768V11.2878C6.81248 11.1505 6.34583 11.0762 5.86219 11.0762C5.37838 11.0762 4.91173 11.1505 4.47266 11.2878V10.0768C4.47266 9.72694 4.75747 9.44233 5.10716 9.44233H6.6168C6.96668 9.44233 7.25151 9.72713 7.25151 10.0768Z" fill="#1E1E1E"/>
<path d="M3.64838 15.8112C3.64838 17.032 4.64175 18.0251 5.86258 18.0251C7.08341 18.0251 8.07657 17.032 8.07657 15.8112C8.07657 14.5903 7.08341 13.5972 5.86258 13.5972C4.64196 13.5972 3.64838 14.5903 3.64838 15.8112ZM7.47663 15.8112C7.47663 16.7011 6.75277 17.4252 5.86258 17.4252C4.9726 17.4252 4.24832 16.7013 4.24832 15.8112C4.24832 14.9212 4.9726 14.1971 5.86258 14.1971C6.75277 14.1971 7.47663 14.9212 7.47663 15.8112Z" fill="#1E1E1E"/>
</svg>
