<svg width="21" height="20" viewBox="0 0 21 20" fill="none" xmlns="http://www.w3.org/2000/svg">
<path d="M7.78448 8.65182V8.69871V8.7456L7.08108 12.966C7.03418 13.1067 7.12797 13.2474 7.22176 13.388C7.31554 13.4818 7.40933 13.5287 7.55001 13.5287H7.6438L11.8642 12.8253H11.9111H11.958C12.0049 12.8253 12.0518 12.7784 12.0987 12.7315L20.1643 4.66589C20.8208 4.00938 20.8208 2.88394 20.1643 2.22743L18.4293 0.49238C17.7728 -0.164127 16.6473 -0.164127 15.9908 0.49238L7.87799 8.51087C7.8311 8.55776 7.8311 8.60466 7.78421 8.65155L7.78448 8.65182ZM8.53477 9.82415L10.7388 12.0281L8.06584 12.4502L8.53477 9.82415ZM15.1936 2.55595L18.0072 5.36955L11.7235 11.6533L8.90992 8.83966L15.1936 2.55595ZM16.6473 1.10226C16.9287 0.820901 17.4445 0.820901 17.7728 1.10226L19.5078 2.83731C19.8361 3.16557 19.8361 3.6345 19.5078 3.96275L18.7106 4.75994L15.897 1.94634L16.6473 1.10226Z" fill="#1E1E1E"/>
<path d="M3.517 20H12.4734C14.396 20 15.9904 18.4057 15.9904 16.483V10.8087C15.9904 10.5273 15.8028 10.3398 15.5214 10.3398C15.2401 10.3398 15.0525 10.5273 15.0525 10.8087V16.483C15.0525 17.8898 13.8802 19.0622 12.4734 19.0622H3.517C2.1102 19.0622 0.937866 17.8898 0.937866 16.483V7.71426C0.937866 6.30746 2.1102 5.13513 3.517 5.13513H10.1292C10.4106 5.13513 10.5982 4.94756 10.5982 4.6662C10.5982 4.38484 10.4106 4.19727 10.1292 4.19727H3.517C1.59437 4.19727 0 5.79164 0 7.71426V16.483C0 18.4057 1.59437 20 3.517 20Z" fill="#1E1E1E"/>
</svg>
