<svg width="21" height="20" viewBox="0 0 21 20" fill="none" xmlns="http://www.w3.org/2000/svg">
<path d="M19.8078 13.8204L6.24619 0.225429C5.94562 -0.0751431 5.37778 -0.0751431 5.07697 0.225429L0.300475 5.03527C-0.0336498 5.36939 -0.0336498 5.90368 0.300475 6.20449L13.8287 19.7661C13.9957 19.9331 14.1961 20 14.4298 20C14.6637 20 14.8641 19.8998 15.0309 19.7661L19.8074 14.956C20.1084 14.6554 20.1084 14.1209 19.8076 13.8204L19.8078 13.8204ZM19.3401 14.522L14.5303 19.2985C14.4968 19.3654 14.4634 19.3654 14.4301 19.3654C14.3968 19.3654 14.3632 19.3654 14.2966 19.332L12.7599 17.7954L14.1962 16.3592C14.3297 16.2257 14.3297 16.0251 14.1962 15.8916C14.0626 15.758 13.862 15.758 13.7285 15.8916L12.3256 17.3278L10.288 15.2902L11.7242 13.854C11.8577 13.7205 11.8577 13.5199 11.7242 13.3863C11.5907 13.2528 11.3901 13.2528 11.2566 13.3863L9.85368 14.8226L7.81611 12.785L9.25231 11.3488C9.38582 11.2153 9.38582 11.0146 9.25231 10.8811C9.1188 10.7476 8.91819 10.7476 8.78468 10.8811L7.38176 12.3173L5.34418 10.2798L6.78039 8.84356C6.9139 8.71005 6.9139 8.50944 6.78039 8.37594C6.64688 8.24243 6.44626 8.24242 6.31276 8.37594L4.90984 9.81214L2.87226 7.77456L4.30847 6.33836C4.44198 6.20485 4.44198 6.00423 4.30847 5.87073C4.17496 5.73723 3.97434 5.73722 3.84084 5.87073L2.43792 7.30693L0.901262 5.77028C0.834391 5.70341 0.834391 5.60322 0.901262 5.53635L5.67776 0.726271C5.57803 0.659632 5.6449 0.659632 5.67822 0.659632C5.71154 0.659632 5.7451 0.659632 5.81173 0.692951L19.3399 14.2545C19.3735 14.355 19.4068 14.4551 19.3399 14.522L19.3401 14.522ZM11.9247 4.96876L11.4571 4.50113L15.0313 1.19418C15.4989 0.759876 16.2338 0.759876 16.7014 1.2275L19.407 3.93308C19.641 4.16701 19.7745 4.46758 19.7411 4.8015C19.7411 5.13562 19.6076 5.43621 19.3404 5.66991L15.8666 8.90999L15.3652 8.40928L18.8725 5.1692C18.9727 5.06901 19.0396 4.93526 19.0396 4.80175C19.0396 4.66824 18.9727 4.5345 18.8725 4.40099L16.167 1.69541C15.9666 1.49503 15.6325 1.49503 15.4321 1.69541L11.9247 4.96876ZM4.34224 18.5971L0.901739 15.1564L4.74295 11.6158L4.27533 11.1481L0.166827 14.8894C0.166827 14.8894 0.133509 14.9228 0.133509 14.9563C0.133509 14.9896 0.10019 14.9896 0.10019 15.0232C0.10019 15.0565 0.10019 15.09 0.066871 15.1234V15.1567L0 19.165C0 19.2652 0.033319 19.332 0.100191 19.3989C0.167062 19.4658 0.233701 19.4991 0.334124 19.4991L4.34241 19.4322C4.40928 19.4322 4.50948 19.3989 4.57635 19.332L8.6515 15.5574L8.18387 15.0898L4.34224 18.5971ZM0.667799 18.7975L0.734671 15.9249L3.54046 18.7307L0.667799 18.7975Z" fill="#1E1E1E"/>
</svg>
